<svg width="33" height="40" fill="none" xmlns="http://www.w3.org/2000/svg"><g filter="url('#filter0_d_2_31262')" fill="#F0F" stroke="#fff" stroke-width="2"><path d="M8.108 18.329a2.76 2.76 0 0 1-4.198-2.357v-4.226c0-.212.025-.424.073-.632l4.125 7.215Zm0 0a2.76 2.76 0 0 0 4.026.956 2.758 2.758 0 0 0 3.396.974v4.516a2.76 2.76 0 1 0 5.52 0v-9.189a2.76 2.76 0 0 0 4.05-3.703l-.807.588.807-.588-5.633-7.746A2.76 2.76 0 0 0 17.234 3H8.079a2.76 2.76 0 0 0-2.687 2.128l-1.409 5.986 4.125 7.215ZM16.7 34.697a1.922 1.922 0 0 0 3.843 0h.001V31.8a1.92 1.92 0 0 0-1.92-1.921h-.002c-1.06 0-1.921.86-1.921 1.92v2.897ZM24.626 28.093a1.922 1.922 0 0 0-2.717 2.718l2.047 2.047a1.921 1.921 0 1 0 2.718-2.717l-2.048-2.048Z"/><path d="M24.891 28.053c-1.06 0-1.921-.86-1.921-1.921l1.921 1.921Zm0 0h2.896m-2.896 0h2.896m0 0c1.062 0 1.922-.86 1.922-1.921l-1.922 1.921Zm1.922-1.922a1.918 1.918 0 0 0-1.922-1.92h-2.896c-1.06-.001-1.921.86-1.921 1.92h6.739ZM15.19 28.586a1.922 1.922 0 0 0-2.717 0l-2.048 2.048a1.922 1.922 0 0 0 2.717 2.718l2.048-2.048c.75-.75.751-1.967 0-2.718ZM11.452 24.21a1.918 1.918 0 0 1 1.922 1.922l-1.922-1.922Zm0 0H8.557m2.895 0H8.557m0 0c-1.062 0-1.922.86-1.922 1.922l1.922-1.922Zm2.895 3.843H8.557a1.921 1.921 0 0 1-1.922-1.92l4.817 1.92Zm0 0c1.061 0 1.922-.86 1.922-1.921l-1.922 1.921Z"/></g><defs><filter id="filter0_d_2_31262" x=".91" y="0" width="31.798" height="39.619" filterUnits="userSpaceOnUse" color-interpolation-filters="sRGB"><feFlood flood-opacity="0" result="BackgroundImageFix"/><feColorMatrix in="SourceAlpha" values="0 0 0 0 0 0 0 0 0 0 0 0 0 0 0 0 0 0 127 0" result="hardAlpha"/><feOffset/><feGaussianBlur stdDeviation="1"/><feComposite in2="hardAlpha" operator="out"/><feColorMatrix values="0 0 0 0 0 0 0 0 0 0 0 0 0 0 0 0 0 0 0.3 0"/><feBlend in2="BackgroundImageFix" result="effect1_dropShadow_2_31262"/><feBlend in="SourceGraphic" in2="effect1_dropShadow_2_31262" result="shape"/></filter></defs></svg>