<svg width="25" height="24" fill="none" xmlns="http://www.w3.org/2000/svg"><path fill-rule="evenodd" clip-rule="evenodd" d="M.838 12c0-6.628 5.372-12 12-12s12 5.372 12 12-5.372 12-12 12-12-5.372-12-12Zm22.5 0c0-5.79-4.71-10.5-10.5-10.5S2.338 6.21 2.338 12c0 2.607.961 4.99 2.54 6.828a10.234 10.234 0 0 1 7.96-3.817c3.112 0 6.02 1.42 7.96 3.817A10.449 10.449 0 0 0 23.338 12ZM5.942 19.899a8.736 8.736 0 0 1 6.896-3.388 8.736 8.736 0 0 1 6.896 3.388 10.445 10.445 0 0 1-6.896 2.601c-2.64 0-5.05-.987-6.896-2.601Zm6.896-6.399a4.5 4.5 0 1 0 0-9 4.5 4.5 0 0 0 0 9Zm0-7.5c1.655 0 3 1.345 3 3s-1.345 3-3 3-3-1.345-3-3 1.345-3 3-3Z" fill="#000"/></svg>