<svg width="14" height="13" fill="none" xmlns="http://www.w3.org/2000/svg"><path fill-rule="evenodd" clip-rule="evenodd" d="m7.586.405 4.993 4.731c.57.54.57 1.352 0 1.893l-4.993 4.73c-.286.27-.643.406-1 .406-.356 0-.713-.135-.998-.406L.595 7.03c-.571-.541-.571-1.352 0-1.893L5.588.406C5.873.135 6.23 0 6.587 0c.356 0 .713.135.999.405Zm-.571 10.813 4.993-4.73c.143-.135.214-.27.214-.406 0-.135-.071-.27-.285-.405L6.943.946C6.801.878 6.658.811 6.515.811c-.142 0-.285 0-.428.135l-4.993 4.73c-.071.136-.143.271-.143.406s.072.27.214.406l4.994 4.73c.142.136.285.136.428.136.142 0 .285 0 .428-.136Z" fill="#000"/></svg>