<svg width="24" height="23" fill="none" xmlns="http://www.w3.org/2000/svg"><path fill-rule="evenodd" clip-rule="evenodd" d="M23.701 11.495c0-6.316-5.179-11.369-11.368-11.369A11.321 11.321 0 0 0 .964 11.495a11.321 11.321 0 0 0 11.369 11.368v-1.39c-3.79 0-7.074-2.147-8.842-5.305l2.905-.505-.884-5.684-3.032.505c.505-5.052 4.8-8.968 9.853-8.968 5.179 0 9.347 3.916 9.852 8.968l-3.031-.505-1.01 5.684 4.547.758 1.01-4.926Zm-19.326.126L4.88 14.4l-1.768.253L2.606 12l1.769-.379Zm15.537 2.905 1.768.253.505-2.779-1.768-.253-.505 2.78Z" fill="#000"/></svg>