<svg width="24" height="24" fill="none" xmlns="http://www.w3.org/2000/svg"><path fill-rule="evenodd" clip-rule="evenodd" d="m13.867.8 9.333 9.333c1.067 1.067 1.067 2.667 0 3.734L13.867 23.2c-.534.533-1.2.8-1.867.8s-1.333-.267-1.867-.8L.8 13.867C-.267 12.8-.267 11.2.8 10.133L10.133.8C10.667.267 11.333 0 12 0s1.333.267 1.867.8ZM12.8 22.133l9.333-9.333c.267-.267.4-.534.4-.8 0-.267-.133-.534-.533-.8l-9.333-9.334c-.267-.133-.534-.266-.8-.266-.267 0-.534 0-.8.266L1.733 11.2c-.133.267-.266.533-.266.8s.133.533.4.8l9.333 9.333c.267.267.533.267.8.267s.533 0 .8-.267Z" fill="#000"/></svg>