<svg width="9" height="9" fill="none" xmlns="http://www.w3.org/2000/svg"><path fill-rule="evenodd" clip-rule="evenodd" d="M4.686.27 7.84 3.424c.36.36.36.901 0 1.262L4.686 7.84a.89.89 0 0 1-.631.27.89.89 0 0 1-.63-.27L.27 4.686a.871.871 0 0 1 0-1.262L3.424.27a.89.89 0 0 1 .63-.27c.226 0 .451.09.632.27Zm-.36 7.209 3.153-3.154c.09-.09.135-.18.135-.27 0-.09-.045-.18-.18-.27L4.28.63C4.19.586 4.1.54 4.01.54c-.09 0-.18 0-.27.09L.586 3.784c-.045.09-.09.18-.09.27 0 .09.045.181.135.271L3.785 7.48c.09.09.18.09.27.09.09 0 .18 0 .27-.09Z" fill="#000"/></svg>