<svg width="9" height="9" fill="none" xmlns="http://www.w3.org/2000/svg"><path fill-rule="evenodd" clip-rule="evenodd" d="m5.352.27 3.154 3.154c.36.36.36.901 0 1.262L5.352 7.84a.89.89 0 0 1-.63.27.89.89 0 0 1-.631-.27L.937 4.686a.871.871 0 0 1 0-1.262L4.09.27A.89.89 0 0 1 4.72 0c.226 0 .451.09.631.27Zm-.36 7.209 3.154-3.154c.09-.09.135-.18.135-.27 0-.09-.045-.18-.18-.27L4.947.63c-.09-.045-.18-.09-.27-.09-.09 0-.18 0-.271.09L1.252 3.784c-.045.09-.09.18-.09.27 0 .09.045.181.135.271L4.451 7.48c.09.09.18.09.27.09.09 0 .18 0 .27-.09Z" fill="#000"/></svg>