<svg width="14" height="13" fill="none" xmlns="http://www.w3.org/2000/svg"><path fill-rule="evenodd" clip-rule="evenodd" d="m7.586.905 4.993 4.731c.571.54.571 1.352 0 1.893l-4.993 4.73c-.286.27-.642.406-.999.406s-.713-.135-.999-.406L.595 7.53c-.57-.541-.57-1.352 0-1.893L5.588.906C5.874.635 6.23.5 6.587.5s.713.135.999.405Zm-.57 10.813 4.993-4.73c.142-.135.214-.27.214-.406 0-.135-.072-.27-.286-.405L6.944 1.446c-.143-.068-.286-.135-.428-.135-.143 0-.286 0-.428.135l-4.994 4.73c-.071.136-.143.271-.143.406s.072.27.214.406l4.994 4.73c.143.136.285.136.428.136.143 0 .285 0 .428-.136Z" fill="#000"/></svg>