<svg width="127" height="31" fill="none" xmlns="http://www.w3.org/2000/svg"><mask id="path-1-inside-1_1_403112" fill="#fff"><path fill-rule="evenodd" clip-rule="evenodd" d="m59.53 25 3.97 6 3.97-6H127V0H0v25h59.53Z"/></mask><path fill-rule="evenodd" clip-rule="evenodd" d="m59.53 25 3.97 6 3.97-6H127V0H0v25h59.53Z" fill="#fff"/><path d="m63.5 31-.834.552.834 1.26.834-1.26L63.5 31Zm-3.97-6 .835-.552-.297-.448h-.537v1Zm7.94 0v-1h-.538l-.297.448.834.552ZM127 25v1h1v-1h-1Zm0-25h1v-1h-1v1ZM0 0v-1h-1v1h1Zm0 25h-1v1h1v-1Zm64.334 5.448-3.97-6-1.667 1.104 3.969 6 1.668-1.104Zm2.301-6-3.969 6 1.668 1.104 3.97-6-1.669-1.104ZM127 24H67.47v2H127v-2Zm-1-24v25h2V0h-2ZM0 1h127v-2H0v2Zm1 24V0h-2v25h2Zm58.53-1H0v2h59.53v-2Z" fill="#000" mask="url('#path-1-inside-1_1_403112')"/></svg>